<svg width="78" height="68" viewBox="0 0 78 68" fill="none" xmlns="http://www.w3.org/2000/svg">
<path d="M60.8364 44.5945C59.852 42.4992 58.9126 40.1045 58.4605 37.8499C48.8705 37.3977 43.3012 31.9715 41.852 28.217C41.1594 26.4274 41.3294 24.902 42.3137 24.0327C43.1794 23.2716 44.9621 22.7653 48.5275 24.6919C55.732 28.58 58.4381 27.94 59.4096 27.2139C60.9229 26.0803 60.3682 23.3926 60.3618 23.364L61.9746 23.0137C62.0066 23.1665 62.7633 26.7554 60.4067 28.5227C58.0886 30.2646 53.9493 29.4844 47.7451 26.1376C45.3084 24.8224 43.904 24.8256 43.4038 25.2651C42.9774 25.6408 42.9742 26.542 43.391 27.6184C45.5873 33.293 52.9682 35.7227 58.22 36.1526C58.0469 34.035 58.4477 32.1562 59.836 30.9238C61.9265 29.0704 65.4919 29.5895 67.7844 31.0193C69.4356 32.0511 70.2179 33.414 69.8684 34.6591C69.3009 36.6971 66.0433 37.7735 60.1887 37.8658H60.1342C60.4869 39.4421 61.1698 41.4133 62.3305 43.8844L60.8364 44.585L60.8428 44.5913L60.8364 44.5945ZM59.8649 36.229H60.1694C67.5471 36.1144 68.23 34.4203 68.2845 34.226C68.4192 33.742 67.8677 33.016 66.9155 32.4236C65.1039 31.2932 62.369 30.8856 60.9325 32.1625C60.3137 32.7134 59.634 33.8598 59.8649 36.2322V36.229Z" fill="#5D3699"/>
<path d="M0.00641255 60.3223C0.0705381 58.9912 0.131457 57.6792 0.192377 56.3832C0.256502 55.0871 0.317421 53.772 0.378341 52.444C0.442466 51.5492 0.455291 50.6671 0.423229 49.801V42.1998C0.423229 41.3973 0.500179 40.5948 0.65408 39.7891C0.718206 39.4166 0.747062 39.0472 0.747062 38.6778C0.747062 38.2765 0.763094 37.8912 0.79195 37.5187C0.884932 36.4073 1.47489 35.8341 2.5554 35.8022C2.7093 35.8022 2.86641 35.8182 3.02031 35.8468H3.48522C4.31885 35.7831 5.03065 35.9551 5.6206 36.3563C6.20735 36.7289 6.73639 37.2384 7.2013 37.888C7.63414 38.5058 7.91309 39.1554 8.03493 39.8337C8.18883 40.5152 8.28181 41.2094 8.31067 41.9195C8.33953 42.878 8.35556 43.8365 8.35556 44.7919C8.38441 45.7217 8.40044 46.6611 8.40044 47.6196C8.40044 49.6609 7.57964 51.2212 5.94123 52.3008C5.60137 52.5491 5.4122 52.7179 5.38334 52.8103C5.35448 52.9026 5.4122 53.1478 5.5693 53.5522C6.00215 54.7273 6.37408 55.9151 6.68509 57.122C7.02495 58.297 7.33596 59.5007 7.61491 60.7363C7.76881 61.4464 7.94195 62.1757 8.12471 62.9144C8.31067 63.6246 8.4806 64.3379 8.6345 65.048C8.69863 65.204 8.72749 65.3569 8.72749 65.5129V65.9779C8.6345 66.6593 8.26258 67.0733 7.6117 67.2293C6.92876 67.3217 6.42217 67.0924 6.0791 66.5351C5.98612 66.3504 5.90917 66.1626 5.84825 65.9779C5.81939 65.7613 5.7713 65.5607 5.71038 65.376C5.33845 63.8602 4.96973 62.3635 4.59459 60.8796C4.22267 59.367 3.83791 57.8512 3.43392 56.3354C3.40507 56.2431 3.3698 56.1635 3.34094 56.1061C3.31208 56.0138 3.26399 55.9214 3.20307 55.8291C3.13895 55.9214 3.07803 56.0138 3.01711 56.1061C2.98825 56.1985 2.97222 56.2908 2.97222 56.3832V64.8187C3.00108 65.1563 3.00108 65.5002 2.97222 65.8377C2.90809 66.6402 2.49128 67.0733 1.71856 67.1338C0.85287 67.2262 0.339865 66.8408 0.185964 65.9747C0.121839 65.6658 0.092982 65.4333 0.092982 65.2805V60.3669C0.092982 60.3382 0.0641255 60.3223 0 60.3223H0.00641255ZM3.35056 45.7663V49.6131C3.35056 49.9506 3.39545 50.1544 3.48843 50.215C3.58141 50.2436 3.78341 50.1863 4.09121 50.0303C5.04989 49.5048 5.53083 48.7183 5.53083 47.6674V46.1835C5.55968 45.6899 5.55968 45.1963 5.53083 44.6995C5.50197 44.0499 5.4667 43.4035 5.43785 42.7538C5.40899 42.0724 5.36089 41.3941 5.29998 40.7126C5.20699 40.0949 4.89919 39.5376 4.37015 39.044C4.18419 38.8593 4.01426 38.7956 3.86036 38.8593C3.79623 38.8593 3.75134 38.923 3.72249 39.044C3.69363 39.1363 3.65836 39.2287 3.62951 39.321C3.3185 41.4546 3.22872 43.6009 3.35377 45.7631H3.35056V45.7663Z" fill="#FDD253"/>
<path d="M10.1605 50.3073C10.1316 46.8777 10.4555 43.4767 11.1352 40.1076C11.3212 39.3656 11.5552 38.6841 11.831 38.0664C12.2638 37.0155 13.0205 36.2767 14.1042 35.8405C15.7138 35.2545 17.3393 35.2386 18.9777 35.7959C20.1224 36.1971 20.9432 37.0187 21.437 38.2511C21.748 38.9612 21.966 39.6904 22.0878 40.4292C22.2417 41.1712 22.3636 41.9132 22.4598 42.6551C22.5527 43.4576 22.6297 44.2792 22.6906 45.1103C22.7836 45.9128 22.8445 46.7344 22.8766 47.5655C22.9407 48.9539 22.9535 50.3296 22.9215 51.6893C22.9215 53.0491 22.8926 54.4248 22.8285 55.8132C22.7644 56.9564 22.7355 58.1155 22.7355 59.2906C22.7644 60.4338 22.6425 61.577 22.3636 62.7202C22.2706 63.1501 22.1455 63.5704 21.9916 63.9717L21.5267 65.1754C21.2799 65.7008 20.9528 66.118 20.552 66.4269C20.1512 66.7357 19.6863 66.9682 19.1605 67.1211C18.173 67.4299 17.179 67.5701 16.1915 67.5382C15.2328 67.5096 14.2902 67.2739 13.3603 66.844C12.9884 66.6593 12.6646 66.4428 12.3856 66.1944C12.1099 65.946 11.8919 65.6371 11.7348 65.2645C11.5167 64.7996 11.3147 64.3347 11.132 63.8761C10.946 63.4112 10.821 62.9335 10.7601 62.4368C10.635 61.5069 10.5581 60.5834 10.5292 59.6568C10.5003 58.7269 10.4523 57.8034 10.3913 56.8736C10.3272 55.7909 10.2823 54.6954 10.2535 53.5809C10.2535 52.4695 10.2246 51.3709 10.1605 50.2882V50.2977V50.3073ZM20.1416 50.6353C20.0775 49.6768 20.0486 48.8106 20.0486 48.0368C20.0486 47.263 20.0038 46.4478 19.9108 45.674C19.8466 44.7791 19.7408 43.897 19.5837 43.0309C19.4587 42.1647 19.308 41.2986 19.1188 40.4324C18.9329 39.5376 18.6699 38.9803 18.3301 38.7638C18.0191 38.5154 17.4323 38.3912 16.5666 38.3912C15.7618 38.3912 15.204 38.4994 14.8962 38.716C14.5851 38.9325 14.3222 39.4261 14.1074 40.1999C14.0433 40.3241 14.0144 40.4483 14.0144 40.5725C13.8894 41.3145 13.7515 42.0565 13.5944 42.7984C13.4694 43.5404 13.3764 44.2824 13.3187 45.0243C13.2545 46.0752 13.1936 47.1101 13.1327 48.1291C13.1038 49.1482 13.1038 50.1831 13.1327 51.234C13.1327 52.6574 13.1487 54.0777 13.1776 55.4979C13.2064 56.8863 13.2545 58.2779 13.3155 59.6695C13.3796 60.2873 13.4533 60.8923 13.5463 61.4783C13.6714 62.0642 13.8092 62.666 13.9663 63.287C14.0914 63.7169 14.3062 64.0449 14.6172 64.2614C14.9282 64.4461 15.3001 64.5544 15.733 64.5863C16.3197 64.6149 16.8937 64.6149 17.4516 64.5863C17.8844 64.5226 18.2563 64.4143 18.5673 64.2614C18.8783 64.0767 19.0771 63.7679 19.1701 63.3316C19.324 62.8062 19.4459 62.2648 19.542 61.7075C19.6671 61.1503 19.7601 60.5962 19.8178 60.0389C19.8819 58.3989 19.9268 56.794 19.9557 55.2209C20.0198 53.6446 20.0807 52.116 20.1416 50.6321V50.6385V50.6353Z" fill="#FDD253"/>
<path d="M24.3971 50.3073C24.3683 46.8777 24.6921 43.4767 25.3718 40.1076C25.5578 39.3656 25.7919 38.6841 26.0676 38.0664C26.5005 37.0155 27.2571 36.2767 28.3409 35.8405C29.9504 35.2545 31.576 35.2386 33.2144 35.7959C34.359 36.1971 35.1798 37.0187 35.6736 38.2511C35.9846 38.9612 36.2026 39.6904 36.3245 40.4292C36.4784 41.1712 36.6002 41.9132 36.6964 42.6551C36.7894 43.4576 36.8663 44.2792 36.9273 45.1103C37.0202 45.9128 37.0812 46.7344 37.1132 47.5655C37.1774 48.9539 37.1902 50.3296 37.1581 51.6893C37.1581 53.0491 37.1293 54.4248 37.0651 55.8132C37.001 56.9564 36.9722 58.1155 36.9722 59.2906C37.001 60.4338 36.8792 61.577 36.6002 62.7202C36.5072 63.1501 36.3822 63.5704 36.2283 63.9717L35.7634 65.1754C35.5165 65.7008 35.1895 66.118 34.7887 66.4269C34.3879 66.7357 33.923 66.9682 33.3972 67.1211C32.4096 67.4299 31.4157 67.5701 30.4281 67.5382C29.4695 67.5096 28.5268 67.2739 27.597 66.844C27.2251 66.6593 26.9012 66.4428 26.6223 66.1944C26.3466 65.946 26.1285 65.6371 25.9714 65.2645C25.7534 64.7996 25.5514 64.3347 25.3686 63.8761C25.1827 63.4112 25.0576 62.9335 24.9967 62.4368C24.8717 61.5069 24.7947 60.5834 24.7659 59.6568C24.737 58.7269 24.6889 57.8034 24.628 56.8736C24.5639 55.7909 24.519 54.6954 24.4901 53.5809C24.4901 52.4695 24.4613 51.3709 24.3971 50.2882V50.2977V50.3073ZM34.3783 50.6353C34.3141 49.6768 34.2853 48.8106 34.2853 48.0368C34.2853 47.263 34.2404 46.4478 34.1474 45.674C34.0833 44.7791 33.9775 43.897 33.8204 43.0309C33.6953 42.1647 33.5446 41.2986 33.3555 40.4324C33.1695 39.5376 32.9066 38.9803 32.5667 38.7638C32.2557 38.5154 31.669 38.3912 30.8033 38.3912C29.9985 38.3912 29.4406 38.4994 29.1328 38.716C28.8218 38.9325 28.5589 39.4261 28.3441 40.1999C28.2799 40.3241 28.2511 40.4483 28.2511 40.5725C28.126 41.3145 27.9882 42.0565 27.8311 42.7984C27.706 43.5404 27.613 44.2824 27.5553 45.0243C27.4912 46.0752 27.4303 47.1101 27.3694 48.1291C27.3405 49.1482 27.3405 50.1831 27.3694 51.234C27.3694 52.6574 27.3854 54.0777 27.4142 55.4979C27.4431 56.8863 27.4912 58.2779 27.5521 59.6695C27.6162 60.2873 27.69 60.8923 27.783 61.4783C27.908 62.0642 28.0459 62.666 28.203 63.287C28.328 63.7169 28.5429 64.0449 28.8539 64.2614C29.1649 64.4461 29.5368 64.5544 29.9696 64.5863C30.5564 64.6149 31.1303 64.6149 31.6882 64.5863C32.1211 64.5226 32.493 64.4143 32.804 64.2614C33.115 64.0767 33.3138 63.7679 33.4068 63.3316C33.5607 62.8062 33.6825 62.2648 33.7787 61.7075C33.9037 61.1503 33.9967 60.5962 34.0544 60.0389C34.1186 58.3989 34.1635 56.794 34.1923 55.2209C34.2564 53.6446 34.3174 52.116 34.3783 50.6321V50.6385V50.6353Z" fill="#FDD253"/>
<path d="M50.4188 45.5814V49.6607C50.4188 50.8357 50.3739 52.0076 50.2809 53.1826C50.1558 55.2239 50.127 57.2619 50.1879 59.3031C50.252 61.3443 50.2809 63.3824 50.2809 65.4236V65.9808C50.2809 66.1369 50.252 66.3057 50.1879 66.4904C50.0019 67.2005 49.521 67.5571 48.7483 67.5571C48.0076 67.4934 47.5588 67.0922 47.4017 66.3534C47.3728 66.2611 47.3568 66.1687 47.3568 66.0764V65.7516C47.3568 64.3632 47.3407 62.9875 47.3119 61.6277C47.283 60.268 47.267 58.8923 47.267 57.5039C47.267 56.7301 47.283 55.9722 47.3119 55.2334C47.376 54.4596 47.4209 53.689 47.4497 52.9151C47.4786 51.6191 47.4946 50.3358 47.4946 49.0684V45.1738C47.4946 45.0815 47.4658 44.9732 47.4017 44.849C47.3375 44.9127 47.2766 44.9573 47.2157 44.9859C47.1516 44.9859 47.1067 45.0146 47.0778 45.0783L46.8919 45.5432C46.8277 45.6674 46.7668 45.8075 46.7059 45.9604C46.552 46.2979 46.4109 46.6546 46.2859 47.0271C46.1929 47.3997 46.0678 47.7532 45.9139 48.0939C45.6382 48.6512 45.1733 48.9282 44.5224 48.9282C43.8715 48.9282 43.3906 48.6512 43.179 48.0939C43.0251 47.7564 42.884 47.3997 42.759 47.0271C42.6339 46.6546 42.496 46.3011 42.3389 45.9604L42.153 45.4954C42.0888 45.3107 42.0279 45.1388 41.967 44.9859C41.9382 44.9222 41.8901 44.8936 41.8291 44.8936C41.8003 44.8936 41.7522 44.8649 41.6913 44.8012C41.6271 44.9254 41.5983 45.0018 41.5983 45.0305C41.5694 45.1547 41.5342 45.2789 41.5053 45.4031C41.5053 45.4954 41.5213 45.6196 41.5502 45.7757C41.5791 47.1641 41.6143 48.5748 41.6432 49.9918C41.672 51.3803 41.7073 52.791 41.7362 54.208C41.765 55.5041 41.765 56.8193 41.7362 58.1472V62.0863C41.7362 62.6436 41.7201 63.2168 41.6913 63.8027V65.8885C41.6913 66.0127 41.6752 66.1528 41.6464 66.3057C41.5534 67.14 41.0885 67.5571 40.2549 67.5571C39.915 67.5571 39.604 67.4489 39.325 67.2323C39.0782 67.0158 38.9243 66.7228 38.8601 66.3502C38.8313 66.1942 38.8152 65.949 38.8152 65.6083C38.8441 64.2199 38.8601 62.8442 38.8601 61.4844C38.889 60.1247 38.9243 58.749 38.9531 57.3606C38.9531 56.8957 38.9371 56.4308 38.9082 55.9722C38.8794 55.5073 38.8633 55.0423 38.8633 54.5838C38.8345 52.7304 38.7992 50.9058 38.7704 49.1129C38.7704 47.3233 38.7415 45.5114 38.6774 43.6899C38.6774 42.6709 38.6613 41.6486 38.6325 40.6328C38.6036 39.6138 38.5876 38.6075 38.5876 37.6204C38.5876 37.4038 38.6036 37.1905 38.6325 36.9707C38.6613 36.7542 38.7255 36.5695 38.8184 36.4135C38.9435 36.1364 39.1102 35.9199 39.3282 35.7638C39.5751 35.5791 39.822 35.4868 40.0689 35.4868C40.3158 35.4581 40.5627 35.5027 40.8095 35.6237C41.0564 35.7161 41.2584 35.9008 41.4123 36.181C41.6592 36.5536 41.8772 36.9389 42.0632 37.3401C42.2492 37.7414 42.4191 38.1585 42.573 38.5916C42.8199 39.2731 43.0539 39.9514 43.2688 40.6328C43.5156 41.2824 43.7625 41.9448 44.0094 42.6231C44.0735 42.7791 44.1473 42.9001 44.2403 42.9957C44.3653 43.088 44.4711 43.2122 44.5673 43.3682C44.6603 43.2122 44.7533 43.0912 44.843 42.9957C44.936 42.9033 45.013 42.7791 45.0739 42.6231C45.3208 41.9735 45.5548 41.327 45.7697 40.6774C45.9877 39.9959 46.2185 39.3336 46.4654 38.6871C46.6193 38.2572 46.7925 37.8369 46.9752 37.4357C47.1932 37.0344 47.4081 36.6332 47.6261 36.2319C47.9018 35.646 48.4148 35.3976 49.1587 35.49C49.7775 35.5823 50.1943 35.9836 50.4123 36.6937C50.4765 36.9102 50.5053 37.1236 50.5053 37.3433V37.9929C50.4765 39.289 50.4412 40.5564 50.4123 41.7951V45.5973V45.5846L50.4188 45.5814Z" fill="#FDD253"/>
<path d="M0.00629807 23.0069V19.7142C0.00629807 18.6028 0.0223294 17.5042 0.0511859 16.4215C0.0511859 16.0839 0.0672173 15.7719 0.0960738 15.4916C0.12493 15.1827 0.160199 14.8739 0.189056 14.5618V14.237C0.217912 14.1128 0.217912 13.9886 0.189056 13.8644C0.0351546 12.9059 -0.0129396 11.9665 0.0511859 11.0366C0.115311 10.1068 0.176231 9.16736 0.23715 8.20885C0.301275 7.49872 0.330132 6.76949 0.330132 6.0307V3.76021C0.358988 3.51182 0.358988 3.27936 0.330132 3.066C0.330132 2.81762 0.358988 2.57242 0.423114 2.32403C0.516096 1.64256 0.95215 1.22859 1.72166 1.07255C2.25069 0.980203 2.74446 0.916515 3.20937 0.887855C3.67428 0.859195 4.16804 0.932437 4.69708 1.11713C6.30663 1.67441 7.41921 2.70616 8.04123 4.22195C8.81715 6.19948 8.97105 8.25343 8.50614 10.387C8.35224 11.0366 8.10535 11.6385 7.76549 12.1958C7.45448 12.7212 7.08255 13.2307 6.6497 13.7275C6.40282 13.9758 6.27777 14.1446 6.27777 14.237C6.27777 14.3293 6.41564 14.5013 6.6978 14.7465C7.62762 15.4884 8.30735 16.4788 8.74019 17.7112C10.2568 22.0356 9.763 26.0862 7.25248 29.8534C6.94147 30.2833 6.60161 30.6877 6.22968 31.0571C5.85775 31.3946 5.45376 31.7226 5.02412 32.0315C4.0943 32.6175 3.08753 32.8499 2.00701 32.7257C1.04834 32.6334 0.445558 32.108 0.198675 31.1494C0.0736299 30.6845 0.0127106 30.175 0.0127106 29.6177V22.9878V22.9973L0.00629807 23.0069ZM2.93042 22.9177H2.88553V25.236C2.88553 25.8538 2.8695 26.4715 2.84065 27.0893C2.84065 27.7071 2.85668 28.3249 2.88553 28.9426C2.88553 29.1273 2.94966 29.3725 3.0715 29.6846C3.19654 29.6209 3.31838 29.5763 3.44343 29.5477C3.56847 29.484 3.67428 29.4108 3.77047 29.3184C4.2995 28.9172 4.70029 28.4841 4.97603 28.0223C5.90585 26.5384 6.46374 25.0226 6.6465 23.4782C6.83246 21.9019 6.60161 20.2778 5.95073 18.6124C5.73271 18.0264 5.4217 17.5615 5.02091 17.224C4.62013 16.8514 4.15522 16.5425 3.62939 16.2941C3.16448 16.0776 2.93363 16.2177 2.93363 16.7113V22.9241H2.93042V22.9177ZM3.0234 11.0494H2.93042V12.3008C2.95928 12.7944 3.16127 12.9027 3.5332 12.6256C3.93399 12.3168 4.30912 11.9951 4.64899 11.6512C4.98885 11.2786 5.25177 10.8647 5.43773 10.3997C6.14952 8.5464 6.04051 6.7058 5.11069 4.88112C4.86381 4.4162 4.45982 4.10731 3.90513 3.95127C3.65825 3.85892 3.48511 3.843 3.39533 3.90669C3.30235 3.97038 3.24143 4.13597 3.20937 4.4162C3.18051 5.52756 3.14524 6.64211 3.11639 7.75348C3.08753 8.83618 3.05226 9.93162 3.0234 11.0462V11.0494Z" fill="#5D3699"/>
<path d="M11.0197 15.5463C10.9908 12.1167 11.3147 8.71571 11.9944 5.34977C12.1804 4.6078 12.4144 3.92633 12.6902 3.30856C13.123 2.25769 13.8797 1.51891 14.9634 1.08264C16.573 0.496708 18.1985 0.480786 19.837 1.03806C20.9816 1.4393 21.8024 2.26088 22.2962 3.49325C22.6072 4.20338 22.8252 4.93261 22.947 5.6714C23.1009 6.41337 23.2228 7.15534 23.319 7.89731C23.412 8.69979 23.4889 9.52137 23.5498 10.3525C23.6428 11.155 23.7037 11.9766 23.7358 12.8077C23.7999 14.1961 23.8127 15.5718 23.7807 16.9315C23.7807 18.2913 23.7518 19.6669 23.6877 21.0554C23.6236 22.1986 23.5947 23.3577 23.5947 24.5328C23.6236 25.676 23.5017 26.8192 23.2228 27.9624C23.1298 28.3923 23.0048 28.8126 22.8509 29.2139C22.697 29.6151 22.5398 30.0163 22.3859 30.4176C22.1391 30.943 21.812 31.3602 21.4112 31.669C21.0105 31.9779 20.5455 32.2104 20.0197 32.3633C19.0322 32.6721 18.0382 32.8123 17.0507 32.7804C16.092 32.7518 15.1494 32.5161 14.2196 32.0862C13.8476 31.9015 13.5238 31.685 13.2449 31.4366C12.9659 31.1882 12.7511 30.8793 12.594 30.5067C12.376 30.0418 12.174 29.5769 11.9912 29.1183C11.8052 28.6534 11.6802 28.1757 11.6193 27.679C11.4942 26.7491 11.4173 25.8256 11.3884 24.899C11.3596 23.9691 11.3115 23.0456 11.2505 22.1158C11.1864 21.0331 11.1415 19.9376 11.1127 18.8231C11.1127 17.7117 11.0838 16.6131 11.0197 15.5304V15.5399V15.5463ZM21.004 15.8679C20.9399 14.9094 20.9111 14.0433 20.9111 13.2694C20.9111 12.4956 20.8662 11.6804 20.7732 10.9066C20.7091 10.0118 20.6033 9.12968 20.4461 8.26352C20.3211 7.39736 20.1704 6.53119 19.9812 5.66503C19.7953 4.77021 19.5324 4.21293 19.1925 3.99639C18.8815 3.74801 18.2947 3.62381 17.429 3.62381C16.6243 3.62381 16.0664 3.73208 15.7586 3.94862C15.4476 4.16517 15.1846 4.65875 14.9698 5.43257C14.9057 5.55676 14.8768 5.68095 14.8768 5.80514C14.7518 6.54712 14.6139 7.28909 14.4568 8.03106C14.3318 8.77303 14.2388 9.515 14.1811 10.257C14.117 11.3078 14.056 12.3428 13.9951 13.3618C13.9663 14.3808 13.9663 15.4157 13.9951 16.4666C13.9951 17.89 14.0112 19.3103 14.04 20.7305C14.0689 22.119 14.117 23.5137 14.1779 24.9021C14.242 25.5199 14.3157 26.125 14.4087 26.7109C14.5338 27.2968 14.6716 27.8987 14.8288 28.5196C14.9538 28.9495 15.1686 29.2775 15.4796 29.4941C15.7906 29.6788 16.1626 29.7871 16.5954 29.8189C17.1822 29.8476 17.7561 29.8476 18.314 29.8189C18.7468 29.7552 19.1188 29.6469 19.4298 29.4941C19.7408 29.3094 19.9396 29.0005 20.0325 28.5642C20.1864 28.0388 20.3083 27.4974 20.4045 26.9402C20.5295 26.3829 20.6225 25.8288 20.6802 25.2715C20.7443 23.6316 20.7892 22.0266 20.8181 20.4535C20.8822 18.8772 20.9431 17.3487 21.004 15.8647V15.8711V15.8679Z" fill="#5D3699"/>
<path d="M35.9328 31.3501C35.8687 31.5348 35.8078 31.6749 35.7469 31.7673C35.4359 32.3532 34.9902 32.6335 34.4002 32.6016C33.7494 32.6016 33.3325 32.2768 33.1466 31.6272C33.0824 31.3788 33.0215 31.0412 32.9606 30.6082C32.8965 28.6625 32.8356 26.7136 32.7746 24.7679C32.7105 22.8222 32.6368 20.8606 32.5438 18.8831C32.5149 18.0806 32.4797 17.2782 32.4508 16.4725C32.422 15.67 32.3739 14.8675 32.3129 14.0619C32.3129 13.8772 32.2841 13.6893 32.22 13.5046C31.7871 12.7308 31.3703 11.9729 30.9663 11.2341C30.5655 10.4921 30.1455 9.75018 29.7126 9.00821C29.5876 8.82351 29.4497 8.63563 29.2926 8.45093C29.1676 8.26624 29.0297 8.07836 28.8726 7.89366C28.8437 7.865 28.7476 7.80131 28.5969 7.70896C28.5327 7.77265 28.4879 7.83315 28.459 7.89366C28.459 7.92232 28.443 7.97009 28.4141 8.03059V9.00502C28.3853 11.4475 28.3692 13.8867 28.3692 16.3292C28.3692 18.7717 28.3404 21.2109 28.2762 23.6534C28.2762 24.5482 28.2602 25.443 28.2313 26.3442C28.2025 27.239 28.1544 28.1339 28.0935 29.0351V30.3311C28.0935 30.761 28.0774 31.1973 28.0486 31.6272C28.0197 32.0921 27.8466 32.4615 27.5388 32.7385C27.2278 32.9869 26.8559 33.0761 26.423 33.0156C25.6824 32.9232 25.2784 32.4583 25.2174 31.6272V29.8662C25.2174 29.2803 25.2335 28.6784 25.2623 28.0574C25.2912 26.9461 25.3265 25.8315 25.3553 24.7202C25.4194 23.6088 25.4483 22.4942 25.4483 21.3829C25.4772 19.0646 25.4932 16.7495 25.4932 14.4313C25.522 12.113 25.5381 9.77884 25.5381 7.43192C25.5381 6.62944 25.522 5.82697 25.4932 5.02131C25.4643 4.18699 25.4291 3.35267 25.4002 2.51835C25.3361 1.93242 25.5092 1.48341 25.91 1.17452C26.3429 0.836973 26.8398 0.789207 27.3977 1.03759C27.7376 1.19363 28.0294 1.41017 28.2827 1.68721C28.4366 1.87191 28.5584 2.07253 28.6546 2.28907C28.7796 2.47377 28.9175 2.67439 29.0746 2.89093C29.5395 3.60105 30.0044 4.29526 30.4661 4.97673C30.9278 5.65819 31.4088 6.3524 31.9057 7.06252C31.9346 7.12621 31.9827 7.17079 32.0436 7.19945C32.1077 7.22811 32.1687 7.26314 32.2296 7.2918C32.2584 7.22811 32.2937 7.16761 32.3226 7.10711C32.3514 7.01476 32.3674 6.93515 32.3674 6.87783C32.3963 6.1677 32.4123 5.4735 32.4123 4.79203C32.4412 4.0819 32.4572 3.36859 32.4572 2.65846V2.10119C32.5213 1.76364 32.6432 1.48341 32.8292 1.26687C33.0151 1.05033 33.278 0.910215 33.6179 0.849711C33.9578 0.786023 34.2688 0.833789 34.5477 0.986641C34.8587 1.11083 35.0768 1.3433 35.1986 1.68085C35.3236 2.0184 35.3846 2.42282 35.3846 2.88456C35.3204 4.05961 35.2595 5.2474 35.1986 6.4543C35.1697 7.65801 35.1537 8.85217 35.1537 10.024C35.1537 11.4761 35.1826 12.9155 35.2467 14.3357C35.3108 15.7592 35.3717 17.1794 35.4326 18.5997L35.6186 24.1629C35.6827 26.0162 35.7437 27.8696 35.8046 29.7261C35.8046 29.9108 35.8206 30.0987 35.8495 30.2834C35.8783 30.468 35.9136 30.6559 35.9424 30.8406V31.3501L35.9328 31.3438V31.3501Z" fill="#5D3699"/>
<path d="M37.4077 20.1347C37.4077 18.7463 37.4237 17.3865 37.4526 16.0554C37.4814 14.6957 37.4526 13.32 37.3596 11.9316C37.2666 10.4476 37.2666 8.99555 37.3596 7.57211C37.4846 6.12001 37.5455 4.65199 37.5455 3.16805C37.5167 2.55027 37.6706 2.08535 38.0104 1.77964C38.3824 1.47075 38.8761 1.29879 39.4982 1.27013C40.3959 1.20644 41.2328 1.31471 42.0023 1.59494C42.807 1.84333 43.5637 2.1968 44.2755 2.66173C44.5224 2.81776 44.7565 3.0343 44.9713 3.31135C45.1893 3.55973 45.3913 3.82086 45.5741 4.0979C46.039 4.83987 46.3788 5.62961 46.5969 6.46075C46.8437 7.26322 47.0297 8.10073 47.1547 8.9637C47.3728 10.5687 47.4658 12.1641 47.4305 13.7372C47.4305 15.3134 47.4016 16.9025 47.3375 18.5106C47.2734 19.4691 47.1996 20.4276 47.1067 21.383C47.0137 22.3128 46.8758 23.2363 46.6866 24.163C46.3468 25.6469 45.7889 26.9907 45.0162 28.1945C44.2755 29.3982 43.3906 30.5286 42.3678 31.5795C41.5919 32.3533 40.6652 32.6622 39.5815 32.5093C39.1166 32.4457 38.7158 32.2801 38.376 31.9998C38.0361 31.7228 37.8341 31.3502 37.7732 30.8885C37.7091 30.4235 37.6481 29.9586 37.5872 29.5001C37.5584 29.0351 37.5423 28.5702 37.5423 28.1117C37.5135 26.7806 37.4974 25.4686 37.4974 24.1725C37.5263 22.8414 37.5423 21.5008 37.5423 20.141H37.4045L37.4077 20.1347ZM40.3318 20.227H40.3767V27.5066C40.4055 27.9079 40.4408 28.3091 40.4697 28.7103C40.4697 28.774 40.4857 28.8345 40.5145 28.895C40.5434 28.9587 40.5787 29.0192 40.6075 29.0797C40.6717 29.016 40.7326 28.9874 40.7935 28.9874C40.8544 28.9874 40.9025 28.9587 40.9314 28.895C41.4893 28.2454 41.9991 27.5639 42.464 26.8538C42.9577 26.1437 43.3297 25.3699 43.5797 24.5355C43.8908 23.5484 44.0895 22.558 44.1825 21.5708C44.3076 20.5837 44.4006 19.5933 44.4583 18.6061C44.5224 17.3101 44.5673 16.0268 44.5961 14.7594C44.6603 13.4633 44.6122 12.1609 44.4583 10.8648C44.3941 10.1228 44.3044 9.39679 44.1825 8.68666C44.0575 7.94469 43.8555 7.21864 43.5797 6.50851C43.3329 5.89073 42.993 5.41307 42.5569 5.06915C42.1562 4.7316 41.6432 4.48322 41.0243 4.32718C40.7775 4.26349 40.6043 4.26349 40.5145 4.32718C40.4216 4.39087 40.3767 4.55646 40.3767 4.83669C40.2837 6.84606 40.2388 8.86817 40.2388 10.9094C40.2388 11.7756 40.2548 12.6258 40.2837 13.4569C40.3126 14.2912 40.3286 15.1415 40.3286 16.0045C40.3574 16.7146 40.3574 17.4279 40.3286 18.138V20.2238H40.3318V20.227Z" fill="#5D3699"/>
<path d="M72.8759 50.6639C72.379 49.82 71.8948 48.9984 71.4331 48.196C71.2439 47.8711 71.0323 47.4699 70.8047 47.04C70.2372 45.9828 69.5991 44.7823 69.0316 44.0944C67.9864 42.827 66.178 43.0181 64.7224 43.1709C64.6166 43.1805 64.5204 43.19 64.421 43.1996L62.51 43.569C60.7241 43.9766 59.1499 44.5689 57.8289 45.33C56.4309 46.1325 55.1388 47.1292 55.1388 48.9475V49.0048C55.1548 50.1353 55.3055 51.3899 55.4562 52.6096C55.5492 53.3579 55.6358 54.0617 55.6903 54.7304C55.7865 55.8863 55.873 57.0805 55.95 58.2333C56.0943 60.2936 56.245 62.424 56.4726 64.4779C56.6971 66.4618 57.3928 67.1688 59.4384 67.4936C63.7958 68.1814 71.6607 65.5256 75.2582 62.8634C76.9319 61.6247 78.1118 60.4687 76.8613 57.8639C75.7359 55.5265 74.2835 53.0586 72.8759 50.6703V50.6639ZM57.6654 47.6451C59.4833 46.0306 64.4915 44.7026 66.768 44.9256C66.9956 44.9478 67.3964 45.0243 67.6176 45.2949L74.1424 56.8417C72.5264 56.7016 70.763 56.8321 68.7847 57.2365C64.6005 58.0932 60.8556 59.8319 58.1335 62.1788L57.0465 49.7531V49.6353C57.0049 48.629 56.9888 48.2501 57.6654 47.6482V47.6451ZM58.9863 63.927C61.9489 60.6502 69.9101 58.2205 73.9212 58.7237L74.059 58.7396C75.0305 58.8606 75.4666 58.9689 75.5564 59.5293C75.5628 59.5612 75.5628 59.6026 75.5628 59.6344C75.5628 60.4146 74.2771 61.2903 73.7801 61.6247C70.4584 63.8761 63.6547 66.1338 59.8649 65.6753C58.6689 65.532 58.4541 65.1881 58.4156 65.0861C58.3291 64.8505 58.5439 64.4174 58.9895 63.9238L58.9863 63.927Z" fill="#5D3699"/>
<path d="M57.9057 22.3733C59.1497 23.0644 60.615 23.6025 62.5003 24.0515H62.4939L64.4593 24.4114C64.5459 24.4209 64.6293 24.4273 64.719 24.4368C66.1907 24.5865 68.0183 24.7744 69.0251 23.5197L69.0668 23.4592C70.1569 21.59 71.4458 19.3704 72.7508 17.084C73.1163 16.4344 73.5107 15.7625 73.9114 15.0874C74.9439 13.3359 76.0083 11.5208 76.8259 9.81078C77.775 7.81733 77.5634 6.71552 75.9538 5.2889C72.5424 2.26051 63.289 -0.857041 58.8484 0.21611C56.9663 0.671483 56.7162 1.63955 56.543 3.06299C56.2416 5.56594 56.0493 8.12304 55.8633 10.5942C55.6645 13.1895 55.4625 15.8676 55.1355 18.482V18.5138C55.1291 18.5871 55.1291 18.6635 55.1291 18.7335C55.1291 20.5837 56.6072 21.6473 57.9089 22.3733H57.9057ZM74.7226 6.68049C75.1362 7.0467 75.5274 7.54347 75.5595 7.74091H75.5627C75.6589 8.29181 75.4184 8.64847 74.8445 8.80769C71.0194 9.86173 61.4839 6.69642 58.8996 3.51836C58.547 3.08209 58.3834 2.7127 58.4508 2.5089C58.5117 2.3242 58.8067 2.15542 59.2588 2.04079C62.9556 1.10456 71.7632 4.05653 74.7226 6.68368V6.68049ZM58.2103 5.44494H58.2135C61.2178 8.0689 65.014 9.43184 67.7682 10.1229C69.5862 10.5814 71.8819 11.04 74.1198 10.8075L67.4925 22.437C66.9891 22.8351 65.6489 22.6854 64.998 22.6122L64.9339 22.6058C63.9944 22.5039 62.2406 22.1218 60.6118 21.539C58.7778 20.883 57.5626 20.1411 57.1875 19.4469C56.931 18.9756 57.0368 18.2145 57.1266 17.5489C57.1554 17.3133 57.1907 17.084 57.2067 16.8707C57.444 13.8232 57.7294 10.7215 58.0019 7.72499C58.0724 6.96709 58.1398 6.20601 58.2103 5.44812V5.44494Z" fill="#FDD253"/>
</svg>
